<svg width="64.000000" height="64.000000" viewBox="0 0 64 64" fill="none" xmlns="http://www.w3.org/2000/svg" xmlns:xlink="http://www.w3.org/1999/xlink">
	<desc>
			Created with Pixso.
	</desc>
	<defs>
		<clipPath id="clip41_207">
			<rect width="64.000000" height="64.000000" fill="white" fill-opacity="0"/>
		</clipPath>
	</defs>
	<rect width="64.000000" height="64.000000" fill="#10B981" fill-opacity="0"/>
	<g clip-path="url(#clip41_207)">
		<path d="M39.5466 30.1067L28.24 18.8C27.9921 18.55 27.6971 18.3517 27.3722 18.2163C27.0472 18.0809 26.6987 18.0112 26.3466 18.0112C25.9946 18.0112 25.6461 18.0809 25.3211 18.2163C24.9962 18.3517 24.7012 18.55 24.4533 18.8C23.9566 19.2997 23.6779 19.9756 23.6779 20.6801C23.6779 21.3845 23.9566 22.0604 24.4533 22.5601L33.8933 32L24.4533 41.4401C23.9566 41.9397 23.6779 42.6155 23.6779 43.3201C23.6779 44.0245 23.9566 44.7004 24.4533 45.2001C24.7025 45.4471 24.998 45.6427 25.3229 45.7754C25.6478 45.9081 25.9957 45.9753 26.3466 45.9734C26.6976 45.9753 27.0455 45.9081 27.3704 45.7754C27.6953 45.6427 27.9908 45.4471 28.24 45.2001L39.5466 33.8933C39.7966 33.6455 39.9949 33.3505 40.1304 33.0255C40.2657 32.7006 40.3354 32.3521 40.3354 32C40.3354 31.6479 40.2657 31.2994 40.1304 30.9745C39.9949 30.6495 39.7966 30.3546 39.5466 30.1067Z" fill="#10B981" fill-opacity="1.000000" fill-rule="nonzero"/>
	</g>
</svg>
