<svg width="30.000000" height="30.000000" viewBox="0 0 30 30" fill="none" xmlns="http://www.w3.org/2000/svg" xmlns:xlink="http://www.w3.org/1999/xlink">
	<desc>
			Created with Pixso.
	</desc>
	<defs>
		<clipPath id="clip41_199">
			<rect id="Arrows / left arrow" width="30.000000" height="30.000000" fill="white" fill-opacity="0"/>
		</clipPath>
	</defs>
	<rect id="Arrows / left arrow" width="30.000000" height="30.000000" fill="#FFFFFF" fill-opacity="0"/>
	<g clip-path="url(#clip41_199)">
		<path id="Vector" d="M14.1125 15L18.5376 10.5752C18.7703 10.3408 18.9011 10.0242 18.9011 9.69385C18.9011 9.36353 18.7703 9.04688 18.5376 8.8125C18.4214 8.69556 18.283 8.60254 18.1309 8.53906C17.9785 8.47559 17.8149 8.44287 17.6499 8.44287C17.4851 8.44287 17.3215 8.47559 17.1692 8.53906C17.0171 8.60254 16.8787 8.69556 16.7625 8.8125L11.4624 14.1125C11.3455 14.2288 11.2524 14.3672 11.189 14.5193C11.1255 14.6716 11.0928 14.8352 11.0928 15C11.0928 15.165 11.1255 15.3286 11.189 15.481C11.2524 15.6331 11.3455 15.7715 11.4624 15.8877L16.7625 21.25C16.8794 21.366 17.0178 21.4575 17.1702 21.5198C17.3225 21.582 17.4856 21.6135 17.6499 21.6125C17.8145 21.6135 17.9775 21.582 18.1299 21.5198C18.2822 21.4575 18.4207 21.366 18.5376 21.25C18.7703 21.0159 18.9011 20.6992 18.9011 20.3689C18.9011 20.0386 18.7703 19.7219 18.5376 19.4875L14.1125 15Z" fill="#FFFFFF" fill-opacity="1.000000" fill-rule="nonzero"/>
	</g>
</svg>
