<svg width="30.000000" height="30.000000" viewBox="0 0 30 30" fill="none" xmlns="http://www.w3.org/2000/svg" xmlns:xlink="http://www.w3.org/1999/xlink">
	<desc>
			Created with Pixso.
	</desc>
	<defs>
		<clipPath id="clip41_204">
			<rect id="Arrows / left arrow" width="30.000000" height="30.000000" transform="matrix(-1 0 0 1 30 0)" fill="white" fill-opacity="0"/>
		</clipPath>
	</defs>
	<rect id="Arrows / left arrow" width="30.000000" height="30.000000" transform="matrix(-1 0 0 1 30 0)" fill="#FFFFFF" fill-opacity="0"/>
	<g clip-path="url(#clip41_204)">
		<path id="Vector" d="M15.8875 15L11.4625 10.5752C11.2297 10.3408 11.099 10.0242 11.099 9.69385C11.099 9.36353 11.2297 9.04688 11.4625 8.8125C11.5787 8.69556 11.7169 8.60254 11.8693 8.53906C12.0216 8.47559 12.1849 8.44287 12.35 8.44287C12.515 8.44287 12.6784 8.47559 12.8307 8.53906C12.983 8.60254 13.1213 8.69556 13.2375 8.8125L18.5375 14.1125C18.6547 14.2288 18.7476 14.3672 18.8111 14.5193C18.8746 14.6716 18.9072 14.8352 18.9072 15C18.9072 15.165 18.8746 15.3286 18.8111 15.481C18.7476 15.6331 18.6547 15.7715 18.5375 15.8877L13.2375 21.25C13.1207 21.366 12.9822 21.4575 12.8298 21.5198C12.6776 21.582 12.5145 21.6135 12.35 21.6125C12.1855 21.6135 12.0224 21.582 11.8701 21.5198C11.7178 21.4575 11.5793 21.366 11.4625 21.25C11.2297 21.0159 11.099 20.6992 11.099 20.3689C11.099 20.0386 11.2297 19.7219 11.4625 19.4875L15.8875 15Z" fill="#FFFFFF" fill-opacity="1.000000" fill-rule="nonzero"/>
	</g>
</svg>
